<svg data-v-0dd9719b="" version="1.0" xmlns="http://www.w3.org/2000/svg" xmlns:xlink="http://www.w3.org/1999/xlink" width="100%" height="100%" viewBox="0 0 340.000000 250.000000" preserveAspectRatio="xMidYMid meet" color-interpolation-filters="sRGB" style="margin: auto;"> <rect data-v-0dd9719b="" x="0" y="0" width="100%" height="100%" fill="#ffffff" fill-opacity="1" class="background"></rect> <rect data-v-0dd9719b="" x="0" y="0" width="100%" height="100%" fill="url(#watermark)" fill-opacity="1" class="watermarklayer"></rect> <g data-v-0dd9719b="" class="iconmbgsvg" transform="translate(81.42500305175781,68.75)"><g fill="#000000" hollow-target="textNormalTran"><g opacity="0.55" transform="translate(32.32499694824219,0)"><g><rect fill="#000000" fill-opacity="0" stroke-width="2" x="0" y="0" width="112.5" height="112.5" class="image-rect"></rect> <svg x="0" y="0" width="112.5" height="112.5" filtersec="colorsb3194181785" class="image-svg-svg primary" style="overflow: visible;"><svg xmlns="http://www.w3.org/2000/svg" viewBox="0 0 105.25 105.25"><g fill-rule="evenodd"><path d="M58.22 0h-17C27.8 0 18.63 6.51 14.45 14.63c18.46-7.63 34.14 5 36.4 23.73C52 44.6 54.48 46 61.14 46c38.44 0 32.69-46-2.92-46z" fill="#ffb71c"></path><path d="M105.25 58.22v-17c0-13.4-6.51-22.57-14.63-26.75 7.63 18.46-5 34.14-23.73 36.4-6.24 1.17-7.61 3.63-7.61 10.29 0 38.42 45.97 32.67 45.97-2.94z" fill="#fa4516"></path><path d="M47 105.25h17c13.4 0 22.57-6.51 26.75-14.63-18.46 7.63-34.14-5-36.4-23.73-1.17-6.24-3.63-7.61-10.28-7.61-38.4 0-32.65 45.97 2.93 45.97z" fill="#006cb7"></path><path d="M0 47v17c0 13.45 6.51 22.62 14.63 26.8C7 72.34 19.61 56.66 38.36 54.4 44.6 53.23 46 50.77 46 44.11 46 5.67 0 11.42 0 47z" fill="#26cad3"></path></g></svg></svg> <!----></g></g> <g transform="translate(0,47.63000011444092)"><g data-gra="path-name" fill-rule="" class="tp-name"><g transform="scale(1)"><g><path d="M1.63 0L4.86 0 4.86-7.23 13.46-7.23 13.46 0 16.69 0 16.69-16.76 13.46-16.76 13.46-10.3 4.86-10.3 4.86-16.76 1.63-16.76ZM23.18-16.76L19.94-16.76 19.94 0 23.18 0 23.18-4.72 25.64-7.23 31.36 0 35.6 0 27.92-9.43 35.24-16.76 31.01-16.76 23.18-8.6ZM43.36-6.54C43.36-2.78 44.92 0.24 49.87 0.24 53.75 0.24 56.46-1.7 56.46-5.46L56.46-16.76 53.22-16.76 53.22-6.37C53.22-4.38 52.29-2.8 49.85-2.8 47.36-2.8 46.42-4.43 46.42-6.54ZM70.03-6.54C70.03-4.14 68.45-2.92 66.15-2.92 63.78-2.92 62.44-4.14 62.44-6.54L62.44-16.76 59.16-16.76 59.16-6.06C59.16-1.77 62.42 0.24 66.18 0.24 70.06 0.24 73.22-1.77 73.22-6.06L73.22-16.76 70.03-16.76ZM76.28 0L79.42 0 79.42-11.4 79.54-11.4 87.61 0 90.77 0 90.77-16.76 87.68-16.76 87.68-5.22 87.56-5.22 79.47-16.76 76.28-16.76ZM97.23-16.76L94-16.76 94 0 97.23 0 97.23-4.72 99.7-7.23 105.42 0 109.66 0 101.97-9.43 109.3-16.76 105.06-16.76 97.23-8.6ZM122.08-6.54C122.08-4.14 120.5-2.92 118.2-2.92 115.83-2.92 114.49-4.14 114.49-6.54L114.49-16.76 111.21-16.76 111.21-6.06C111.21-1.77 114.47 0.24 118.23 0.24 122.11 0.24 125.27-1.77 125.27-6.06L125.27-16.76 122.08-16.76ZM136.35-16.76L132.26-16.76 126.25 0 129.74 0 130.8-3.11 138.08-3.11 139.2 0 142.94 0ZM131.64-5.63L134.2-13.29 134.44-13.29 137.19-5.63ZM144.68 0L147.82 0 147.82-11.4 147.94-11.4 156.01 0 159.17 0 159.17-16.76 156.08-16.76 156.08-5.22 155.96-5.22 147.87-16.76 144.68-16.76ZM175.88-2.51L175.76 0 178.78 0C178.78-0.12 178.78-8.81 178.78-8.93L169.87-8.93 169.87-6.58 175.81-6.58C175.57-4.55 173.49-2.44 170.45-2.44 166.74-2.44 164.87-5.03 164.87-8.38 164.87-11.64 167.12-14.15 170.47-14.15 173.03-14.15 174.68-12.95 175.31-11.04L178.73-11.04C177.92-15.23 175.02-17 170.45-17 165.11-17 161.73-13.65 161.73-8.38 161.73-3.14 164.77 0.24 170.11 0.24 173.92 0.24 175.38-1.6 175.76-2.51Z" transform="translate(-1.6299999952316284, 17)"></path></g> <!----> <!----> <!----> <!----> <!----> <!----> <!----></g></g> <!----></g></g></g><defs v-gra="od"></defs></svg>